PathFileType	4	(X/Y/Z)	C:/Users/beibeiliu/ov580/test_trc/User3\sequence.38_training_dense_right.trc
DataRate	CameraRate	NumFrames	NumMarkers	Units	OrigDataRate	OrigDataStartFrame	OrigNumFrames
120	120	24	19	mm	120	1	260
Frame#	Time	ThumbCMC			ThumbMCP			ThumbIP			ThumbTip			IndexMCP			IndexPIP			IndexTip			MiddleMCP			MiddlePIP			MiddleTip			RingMCP			RingPIP			RingTip			PinkyMCP			PinkyPIP			PinkyTip			BackHand1			BackHand2			BackHand3	
		X0	Y0	Z0	X1	Y1	Z1	X2	Y2	Z2	X3	Y3	Z3	X4	Y4	Z4	X5	Y5	Z5	X6	Y6	Z6	X7	Y7	Z7	X8	Y8	Z8	X9	Y9	Z9	X10	Y10	Z10	X11	Y11	Z11	X12	Y12	Z12	X13	Y13	Z13	X14	Y14	Z14	X15	Y15	Z15	X16	Y16	Z16	X17	Y17	Z17	X18	Y18	Z18	
0	0	115.742	-51.7605	76.7361	90.1914	-64.9357	55.8347	78.3724	-79.1893	30.759	75.0932	-92.7444	11.8787	116.869	-57.6311	-2.36118	104.848	-79.4963	-23.976	93.0743	-99.9516	-32.0733	138.374	-65.396	-10.4833	123.527	-85.1223	-30.1077	113.182	-118.282	-38.3348	155.014	-74.1896	-3.9656	147.176	-94.7735	-23.5596	138.551	-124.113	-29.5433	173.121	-82.0844	8.96363	170.087	-100.489	-8.97005	163.084	-122.62	-16.6992	169.603	-46.6064	42.5869	175.623	-38.4382	72.6922	141.912	-32.3588	61.2017	
1	0.00833333	112.637	-51.3312	75.1072	92.9278	-65.5239	54.148	81.8025	-78.5697	32.2862	70.5418	-92.7964	15.7414	118.145	-58.8311	-4.61822	106.577	-76.529	-23.8221	97.2412	-100.118	-31.5252	135.698	-64.8155	-8.78041	123.468	-88.8003	-32.2676	114.424	-119.715	-37.9576	157.743	-74.8527	-5.406	145.772	-94.2614	-23.7645	139.877	-120.176	-28.7015	173.79	-82.9694	7.49545	173.721	-100.292	-6.62559	160.049	-124.268	-18.4894	171.611	-47.1047	41.6405	176.102	-38.938	71.8454	142.175	-32.4795	60.7243	
2	0.0166667	112.928	-52.0191	73.4331	95.9722	-66.2594	52.4237	77.7933	-79.0767	34.0564	75.0701	-92.4687	14.4871	115.156	-56.2487	0.229383	105.949	-78.2235	-24.3133	92.1229	-101.632	-31.9493	137.122	-66.1262	-12.2435	124.767	-87.9457	-31.3743	111.341	-119.72	-37.8948	152.795	-72.8154	-5.1274	148.993	-91.8362	-21.0715	139.967	-121.519	-27.8138	176.358	-82.1284	8.82363	172.661	-101.187	-7.34618	159.817	-122.599	-15.936	172.843	-46.5379	42.2826	175.343	-40.1498	72.6351	143.195	-33.2723	57.8939	
3	0.025	110.156	-51.4648	78.7461	95.7004	-66.9551	55.9362	80.1326	-79.8474	33.2234	75.2185	-93.6294	12.8667	116.981	-57.975	-0.731777	103.619	-74.0949	-22.2553	96.6841	-105.321	-32.8764	134.108	-65.8701	-12.5622	125.883	-86.4981	-30.5463	114.425	-120.605	-37.7449	153.461	-71.8894	-2.55573	148.695	-92.8771	-22.039	135.067	-123.227	-28.7531	171.493	-80.552	8.59113	169.652	-96.9524	-7.9413	160.053	-122.244	-18.6144	171.07	-46.7228	45.8283	178.773	-40.8188	73.0832	142.009	-32.5499	61.4106	
4	0.0333333	113.768	-53.1132	74.7755	93.8504	-67.0665	57.3168	78.1142	-80.25	30.7386	71.9091	-94.1029	12.5892	113.002	-57.3504	-3.03724	102.443	-78.287	-25.1872	92.0255	-103.335	-33.4449	134.022	-62.4016	-7.33539	124.015	-83.8717	-28.4959	111.229	-120.95	-38.0376	156.472	-74.7522	-4.609	148.549	-90.7917	-21.5642	139.753	-121.328	-27.6009	176.777	-82.5664	9.8974	167.757	-96.8535	-7.79105	160.424	-121.981	-18.2304	171.781	-45.2984	44.957	173.738	-38.1615	75.6989	142.058	-33.8052	61.5363	
5	0.0416667	113.625	-52.9026	78.6302	95.1606	-66.8468	56.3059	79.24	-79.5717	34.714	70.8661	-93.9089	13.0965	111.89	-57.882	-4.00548	106.927	-77.032	-23.4405	92.8867	-103.917	-33.3127	136.999	-65.4553	-9.02961	123.413	-86.3241	-30.5101	114.568	-121.541	-37.6579	157.088	-75.0912	-4.92938	150.843	-93.3676	-21.9922	138.923	-124.79	-28.3478	175.156	-80.9996	9.78497	166.957	-98.4916	-8.83725	160.132	-123.365	-15.8691	167.773	-44.8225	42.2171	175.157	-39.9333	73.1435	138.687	-32.9644	60.6985	
6	0.05	111.44	-51.8468	78.0673	92.7389	-66.5761	55.8881	82.5413	-80.9305	30.6366	74.3226	-93.007	13.4145	117.876	-58.1918	-0.982317	102.369	-79.0205	-24.6006	95.6023	-104.971	-33.5204	138.356	-65.8946	-9.05529	122.558	-88.4823	-31.3667	113.746	-119.249	-38.3748	152.528	-73.7222	-5.33144	148.345	-95.0071	-22.9492	139.211	-119.841	-28.9561	177.377	-82.9084	9.43643	172.874	-98.5128	-6.2034	161.793	-122.751	-16.1999	166.48	-46.6117	42.15	176.436	-40.4216	71.023	142.248	-32.4621	58.2896	
7	0.0583333	111.395	-51.9595	73.0571	94.3863	-67.2386	52.6956	77.7403	-79.3867	31.6274	72.3019	-93.3394	10.1857	116.706	-58.076	-2.33606	104.38	-75.9197	-22.4137	96.9669	-105.687	-34.5116	136.854	-65.8855	-9.01998	124.412	-88.9994	-31.0847	112.54	-116.417	-36.8998	153.397	-73.3753	-4.46289	150.874	-96.5544	-23.2236	139.142	-124.709	-28.831	178.177	-82.287	11.5226	169.746	-99.9399	-7.99339	164.09	-121.189	-15.5	171.775	-48.0954	40.7565	176.794	-40.6401	72.7808	139.97	-31.1704	59.5794	
8	0.0666667	112.297	-53.5086	74.9885	95.0769	-67.8929	54.9225	82.6262	-80.1888	31.2567	71.6854	-92.947	14.1669	116.196	-59.4749	-5.27689	106.574	-76.2928	-23.9216	95.1576	-100.351	-33.1206	135.97	-66.8448	-12.9867	129.357	-87.8913	-31.3426	114.958	-120.877	-37.924	156.587	-74.5454	-4.60173	150.976	-97.1392	-24.4314	139.535	-121.453	-29.2126	177.525	-83.6953	6.42506	169.685	-101.077	-9.38354	163.673	-123.772	-17.5636	169.882	-48.1549	42.2603	176.719	-41.9712	69.0035	141.084	-34.6275	57.5003	
9	0.075	115.238	-54.4976	71.9147	92.638	-68.2798	51.8336	79.6273	-80.1412	26.1583	76.1529	-94.0835	11.6898	116.581	-60.1986	-4.91552	107.693	-81.5427	-28.1713	98.2237	-104.854	-37.0053	136.586	-66.8238	-11.7534	125.634	-89.1671	-33.075	114.521	-123.288	-38.9174	155.601	-73.6832	-3.7884	151.937	-99.443	-27.0761	140.679	-124.984	-30.5471	174.188	-83.2917	5.83088	173.445	-101.975	-8.99488	162.963	-124.004	-18.1363	173.423	-49.4557	39.8706	178.554	-41.7165	71.8228	141.146	-34.7257	55.6982	
10	0.0833333	114.874	-53.1076	71.8122	96.3691	-67.4244	49.3475	81.625	-79.6973	26.2482	72.7242	-92.3272	8.60587	120.995	-61.377	-6.64014	107.332	-79.7859	-28.8703	100.948	-103.12	-38.0935	140.341	-67.8605	-12.5796	127.744	-91.4037	-34.9035	118.883	-125.311	-41.712	161.512	-78.8615	-9.19723	153.332	-99.718	-28.5777	142.458	-123.988	-33.4808	175.73	-84.933	4.57759	173.933	-102.816	-11.5196	163.117	-125.638	-19.7448	174.998	-50.7202	37.8644	179.515	-43.8975	71.291	145.683	-35.0359	54.3706	
11	0.0916667	119.464	-54.8709	64.8736	96.2687	-66.724	42.5757	82.2569	-78.059	19.6759	77.8082	-90.8565	4.71289	122.66	-60.4434	-9.85813	111.234	-77.9136	-31.5662	101.291	-105.983	-42.817	141.953	-69.8759	-18.5102	133.177	-91.3897	-38.2647	120.588	-121.682	-45.3407	161.554	-79.8906	-13.3378	152.115	-99.5032	-30.7875	142.314	-129.107	-36.4838	178.182	-85.0272	6.93542	172.172	-104.373	-14.36	166.098	-128.545	-22.2552	178.059	-50.4063	36.8519	183.593	-44.9806	66.0473	145.085	-36.288	53.2093	
12	0.1	122.109	-51.8884	64.1577	103.198	-65.6717	40.458	83.7169	-75.2872	14.02	76.4004	-86.6914	-3.95495	126.362	-58.9387	-13.6582	112.737	-76.7772	-36.8936	101.655	-105.006	-47.1567	144.373	-69.0637	-20.5206	135.811	-90.7777	-41.0834	120.061	-125.316	-49.3313	166.021	-81.7256	-15.9197	154.905	-98.4079	-32.5395	142.428	-128.304	-38.2432	181.178	-90.1902	-0.971192	172.772	-108.425	-17.6738	164.078	-128.502	-24.9532	176.547	-52.595	35.8575	182.894	-46.7964	61.2509	150.067	-37.2886	46.3121	
13	0.108333	121.985	-49.8967	55.0211	100.719	-59.8276	33.922	85.2956	-68.5186	9.62747	77.0738	-80.8393	-8.602	132.273	-61.3786	-22.1419	116.856	-79.3413	-43.5093	105.377	-100.812	-50.051	149.489	-69.2986	-23.9805	135.311	-90.5439	-45.0518	116.09	-123.928	-50.5934	166.109	-81.692	-16.962	153.616	-103.939	-37.0117	137.898	-129.363	-39.6349	180.402	-89.8932	0.272486	175.721	-109.68	-17.8249	158.849	-129.366	-25.6496	179.838	-55.3843	31.9073	186.218	-47.6318	60.1206	154.542	-34.8579	39.7858	
14	0.116667	123.27	-43.582	50.5777	104.853	-53.6558	25.4648	88.4631	-61.5227	0.913985	81.2823	-72.3671	-14.765	136.837	-58.8139	-24.1148	121.176	-77.2175	-46.6718	104.888	-98.6182	-52.4762	148.981	-70.2322	-30.5124	133.332	-90.8394	-48.5796	116.734	-119.275	-50.0757	165.711	-83.2127	-21.1409	153.555	-104.052	-38.9421	131.579	-128.147	-39.3597	181.972	-96.1106	-3.62872	168.1	-114.501	-22.9391	153.665	-133.124	-25.6725	185.481	-59.0741	25.1727	186.001	-52.2218	57.6885	159.568	-35.9124	38.291	
15	0.125	125.611	-39.8748	46.368	106.767	-47.0174	23.5991	89.1746	-50.8143	-0.848833	82.6368	-63.7598	-23.1272	137.503	-55.5226	-29.634	119.957	-70.9633	-50.6897	106.24	-93.3692	-55.5679	152.115	-72.1308	-35.2475	133.53	-87.1101	-51.253	107.41	-116.946	-49.6387	165.019	-85.6554	-26.2679	147.566	-104.272	-41.5187	125.872	-126.984	-37.9185	177.834	-99.7149	-8.04121	161.249	-113.97	-23.8069	141.146	-129.395	-24.821	183.793	-61.2551	25.3733	187.312	-54.9959	53.9876	162.553	-33.2942	37.2743	
16	0.133333	128.125	-34.848	40.5341	106.829	-38.6626	19.9555	94.1822	-44.6973	-7.80478	82.5314	-51.9748	-25.8539	140.04	-55.1976	-35.1991	124.477	-69.9974	-52.3579	100.815	-89.6932	-57.2519	151.835	-74.4313	-39.0056	132.424	-90.6671	-54.0569	102.17	-113.329	-48.3955	161.032	-84.754	-26.7869	145.449	-105.68	-43.0338	121.216	-123.048	-38.3799	171.728	-101.225	-9.24264	153.322	-115.352	-25.7154	129.28	-126.623	-22.4437	184.166	-64.5832	18.36	187.703	-56.7857	53.1897	166.724	-35.6075	34.3164	
17	0.141667	129.297	-29.5913	38.0155	111.897	-35.8873	11.8337	97.0347	-38.8711	-14.2355	85.1157	-45.0352	-33.4996	140.252	-51.4142	-39.35	124.578	-67.8095	-55.7297	97.5234	-84.4823	-57.9375	152.895	-71.3078	-38.1438	128.021	-86.5341	-56.7709	101.352	-106.142	-49.7282	160.567	-88.1993	-29.6211	137.79	-105.941	-45.3788	111.61	-114.316	-38.1516	166.141	-100.526	-14.2666	149.048	-116.436	-26.9362	119.215	-122.276	-22.0664	183.046	-64.7289	18.8893	187.476	-61.3404	51.0295	169.095	-37.3743	29.2734	
18	0.15	130.607	-25.144	35.5536	115.075	-31.2929	8.19271	97.0885	-30.0027	-16.9063	89.4969	-38.2364	-34.5356	141.2	-51.3741	-42.2552	121.953	-63.9534	-60.2406	96.6785	-80.8639	-59.1541	151.07	-69.7302	-43.8946	130.451	-85.5059	-58.3176	92.9522	-102.196	-48.3814	156.861	-87.3665	-33.8021	135.565	-104.798	-45.652	108.209	-112.548	-38.4765	162.328	-101.712	-16.4026	144.706	-112.677	-28.9152	114.038	-116.246	-25.3094	180.815	-64.8352	14.8441	186.844	-61.4007	45.962	168.292	-38.3412	25.4964	
19	0.158333	132.483	-24.6085	31.8195	114.642	-23.3136	3.49949	102.155	-24.9111	-22.1894	91.0937	-29.0644	-42.242	145.426	-49.9374	-40.7713	119.981	-62.983	-62.8409	94.8757	-75.0127	-60.2135	152.382	-68.357	-43.0785	125.005	-79.0726	-61.2913	90.652	-94.5358	-49.1318	156.253	-88.0198	-32.1226	129.102	-99.6419	-47.5831	102.879	-106.474	-39.3451	159.249	-102.3	-19.9058	136.687	-112.52	-31.5877	109.321	-114.941	-25.5693	181.796	-64.8399	15.711	181.458	-61.264	42.4972	167.205	-31.8614	22.3048	
20	0.166667	134.525	-22.8321	26.7921	116.216	-17.4001	2.87893	103.977	-16.0679	-24.1269	92.8636	-20.0561	-45.1441	142.751	-48.9916	-47.4037	122.599	-60.206	-63.4322	94.8014	-69.4123	-62.574	148.761	-69.4976	-47.4851	121.124	-75.9771	-63.3639	88.5767	-87.2853	-51.0968	150.764	-86.229	-36.5122	129.384	-98.6543	-48.132	96.761	-99.7539	-40.2066	154.727	-100.066	-20.8552	132.466	-109.249	-32.6965	105.406	-108.055	-30.0057	177.441	-65.9735	12.4168	179.509	-60.7747	44.3719	169.057	-34.6077	23.6193	
21	0.175	135.935	-17.2858	27.8296	122.021	-16.8666	-2.6492	109.653	-11.4829	-28.9181	101.187	-18.0559	-49.6286	143.38	-45.2818	-47.3065	119.076	-53.2526	-67.4141	89.1098	-61.2497	-64.8938	148.495	-62.146	-47.3879	121.691	-74.1084	-64.1064	84.049	-80.2508	-51.542	147.427	-83.3633	-39.0965	124.929	-92.9391	-50.4403	92.2387	-95.5984	-40.9096	151.351	-96.6594	-19.6459	131.403	-105.152	-34.2139	99.7606	-103.245	-30.242	176.383	-65.735	11.8318	178.528	-62.4432	39.6076	168.811	-33.8102	19.7244	
22	0.183333	137.086	-15.3735	22.9963	124.193	-10.3683	-0.557235	114.322	-5.15851	-30.2069	104.294	-6.02161	-52.4456	142.519	-41.7913	-53.0783	118.453	-50.7456	-69.3952	87.7607	-56.4548	-64.9468	145.7	-61.4857	-50.5604	115.845	-73.9082	-64.7343	85.1692	-77.2518	-52.986	144.019	-78.5733	-41.3504	118.56	-91.251	-51.63	89.1883	-87.1149	-42.7576	147.043	-97.7559	-22.3119	125.612	-103.653	-34.2416	93.8062	-99.8307	-31.0835	175.835	-68.3502	9.91395	179.012	-62.2912	37.5494	169.982	-31.8326	17.6097	
23	0.191667	139.576	-14.1127	23.5195	128.276	-8.54253	-2.60586	121.812	-4.80659	-35.2702	112.559	-2.05434	-53.6229	144.77	-39.1426	-52.144	122.516	-49.8834	-69.8249	87.2744	-51.6508	-67.1275	146.858	-63.4497	-50.1194	116.486	-65.7988	-68.3696	83.1524	-68.4591	-54.3586	143.665	-82.5198	-41.2973	118.577	-86.3582	-52.9717	87.4989	-82.7975	-43.3573	144.443	-92.6372	-24.0366	122.224	-98.7272	-37.1183	92.3493	-92.2363	-33.0736	172.432	-68.0349	5.79358	174.871	-64.5093	38.5552	168.759	-33.7321	18.3994	
